# xmcd
#
# Track frame offsets: 
#        150
#        15013
#        31520
#        47483
#        60597
#        81325
#        95317
#        112945
#        134586
#        150737
#        166039
#        181981
#
# Disc length: 2679 seconds
#
# Revision: 0
# Processed by: cddbd v1.5.2PL0 Copyright (c) Steve Scherf et al.
# Submitted via: ExactAudioCopy v1.1
#
DISCID=7d0a750c
DTITLE=Bryce Janey - Down Home Blues
DYEAR=2011
DGENRE=Blues Rock
TTITLE0=My Little Baby
TTITLE1=Sara Mae
TTITLE2=Little Red Rooster
TTITLE3=Dust Off The Bottle
TTITLE4=Country Fever
TTITLE5=Long Tall Mama
TTITLE6=She's 19 Years Old
TTITLE7=Made In The U.S.A.
TTITLE8=Heal The Night
TTITLE9=Gonna Feel Alright
TTITLE10=Gamblin' Man's Blues
TTITLE11=Down Home Blues
EXTD=
EXTT0=
EXTT1=
EXTT2=
EXTT3=
EXTT4=
EXTT5=
EXTT6=
EXTT7=
EXTT8=
EXTT9=
EXTT10=
EXTT11=
PLAYORDER=
